<svg xmlns="http://www.w3.org/2000/svg" viewBox="0 0 300 68"><path d="M113.95 8.2c-.35 14.35.35 49.5 1 50.15.5.5 2.05.6 3.5.25l2.55-.65V44.5c0-13.3.05-13.45 2.55-15.1 6-3.95 7.35-1.35 7.65 14.8l.3 14.3h6l.3-15.25c.3-17-.1-18.55-5.3-20.25-3.05-1-4.15-.9-7.5.75l-3.95 1.95-.25-9.1-.3-9.1-3.25-.3c-2.15-.2-3.25.1-3.3 1zM12.25 10.85c-1 .6-1.25 6.15-1 24.2l.25 23.45 2.3.35c4.7.65 5.5-1.4 4.95-12.1-.7-11.9-.5-11.95 5.75-.65 5.95 10.75 7.8 12.9 11 12.9 4.25 0 3.8-1.85-3.45-13.6l-7.1-11.55 6.6-10.9C38.2 11.9 38.65 10 34.7 10c-3.3.05-3.8.65-9.75 11.25-6.7 11.9-6.95 11.95-6.25.8.7-10.9-1.35-14.45-6.45-11.2zM249.2 10.85c-2.8 1.8-1.05 7.65 2.3 7.65 2.85 0 3-.2 3-4 0-4.15-2.2-5.7-5.3-3.65zM89.65 14.75c-.25.4-.8 2.45-1.15 4.5C87.95 22 87.3 23 85.9 23c-2.75 0-2.65 5 .1 5.7 1.85.5 2 1.35 2 12.8C88 56.1 89.3 59 95.85 59c6.2 0 8.2-5.5 2.3-6.2l-2.65-.3-.3-11.7-.25-11.65 2.75-.35c4.05-.45 4.1-5.15.05-5.6-2.55-.3-2.75-.65-2.75-4.75 0-4.25-3.5-6.65-5.35-3.7zM54 23.1c-5 1.5-6.45 3.15-5.1 5.75 1.05 1.95 1.35 2 5.25.6C61.2 26.95 65 28.4 65 33.55c0 2.1-.5 2.45-3.25 2.45-5.35.05-11.5 3.45-13.35 7.35-4.9 10.2 6.25 20.4 14.85 13.65l2.55-1.95.55 2.1c.45 1.75 5.25 2.15 6.25.5 1.6-2.6-1.5-30-3.6-32.1-2.95-2.95-9.6-4.05-15-2.45zm11 22.25c0 5.25-2.45 7.95-6.65 7.45-4.05-.45-4.35-8.5-.35-10.5 5.15-2.6 7-1.8 7 3.05zM158 23.1c-5 1.5-6.45 3.15-5.1 5.75 1.05 1.95 1.35 2 5.25.6 7.05-2.5 10.85-1.05 10.85 4.1 0 2-.5 2.45-2.85 2.45-10.05 0-16.8 7.2-14.7 15.6 1.7 6.8 10.3 9.75 15.8 5.4 2.5-1.95 2.55-1.95 3.05.05.45 1.7 4.9 2.1 6.3.55.05-.05-.15-6.75-.5-14.85-.8-19.05-4.9-23.55-18.1-19.65zm11 22.05c0 5.05-2.2 7.85-6.1 7.85-5.2 0-5.85-8.2-.9-10.7 5.05-2.55 7-1.75 7 2.85zM201.1 24.6l-3.2 2.65-.6-2.15c-.65-2.45-6.9-2.75-6.7-.35.05.7.15 8.45.25 17.3.15 17.25.35 17.85 5.55 16.55l2.4-.6-.5-12.25c-.55-14.1.15-16.15 5.85-16.2 3.15-.05 3.35-.25 3.35-3.55 0-4.5-2.2-5-6.4-1.4zM222.4 22.95c-8.8 3.7-8.4 13.85.7 19.85 8.65 5.7 6.2 13.9-2.8 9.1-2-1.05-2.6-1-3.95.35-5.75 5.7 9.5 9.55 15.75 3.95 6-5.35 4.3-13.5-3.9-18.7-7.15-4.55-5.9-11.95 1.5-8.6 2.85 1.3 3.85.9 4.6-1.85.9-3.5-6.95-6.2-11.9-4.1zM275 23.05c-8.6 3.55-8.25 14.4.6 19.55 4.9 2.9 6.7 5.85 5.25 8.65-1 1.9-6.3 2.45-7.35.75-1.1-1.8-4.35-1.05-5.05 1.1-1.85 5.85 11.3 8.3 16.5 3.1 6.15-6.15 3.9-13.6-6.3-20.5-5.15-3.45-2.25-9.05 3.45-6.65 3.35 1.35 4.85.35 4.9-3.25 0-2.9-7.45-4.6-12-2.75zM248.25 40.75l.25 17.75h6l.25-17.75.3-17.75h-7.1l.3 17.75z"/></svg>
